<svg id="visual" viewBox="0 0 900 600" width="900" height="600" xmlns="http://www.w3.org/2000/svg" xmlns:xlink="http://www.w3.org/1999/xlink" version="1.1"><rect x="0" y="0" width="900" height="600" fill="#f1c199"></rect><g transform="translate(441.731551225644 293.4667548622953)"><path d="M150.1 -202C190.8 -176.9 217.6 -128.2 218.3 -81.4C219.1 -34.7 193.7 10 182.4 63.7C171 117.4 173.7 180 145.6 211.4C117.6 242.8 58.8 242.9 14.7 222.7C-29.4 202.5 -58.8 161.9 -95.6 133.4C-132.3 104.8 -176.5 88.2 -193.3 57.8C-210.2 27.3 -199.7 -17.1 -180.6 -53.3C-161.4 -89.5 -133.6 -117.6 -102.1 -145.7C-70.5 -173.7 -35.3 -201.9 9.7 -215.2C54.7 -228.6 109.3 -227.1 150.1 -202" fill="#FCAF3C"></path></g></svg>